<svg width="122" height="50" viewBox="0 0 122 50" fill="none" xmlns="http://www.w3.org/2000/svg">
<path d="M43.0332 21.6572C41.8991 22.8083 41.332 24.2259 41.332 25.9102C41.332 27.5859 41.8991 28.9993 43.0332 30.1504C44.1673 31.3014 45.5469 31.877 47.1719 31.877C48.8053 31.877 50.1891 31.3014 51.3232 30.1504C52.4574 28.9993 53.0244 27.5859 53.0244 25.9102C53.0244 24.2259 52.4574 22.8083 51.3232 21.6572C50.1891 20.4977 48.8053 19.918 47.1719 19.918C45.5469 19.918 44.1673 20.4977 43.0332 21.6572ZM40.1514 32.6133C38.2471 30.7513 37.2949 28.5127 37.2949 25.8975C37.2949 23.2822 38.2471 21.0479 40.1514 19.1943C42.0641 17.3408 44.4043 16.4141 47.1719 16.4141C49.9479 16.4141 52.2881 17.3408 54.1924 19.1943C56.1051 21.0479 57.0615 23.2822 57.0615 25.8975C57.0615 28.5127 56.1051 30.7513 54.1924 32.6133C52.2881 34.4668 49.9479 35.3936 47.1719 35.3936C44.4043 35.3936 42.0641 34.4668 40.1514 32.6133ZM81.6396 16.7949V35H77.7422V27.5859H69.9473V35H66.0371V16.7949H69.9473V24.082H77.7422V16.7949H81.6396ZM95.6934 27.332L93.4844 21.3525L91.2627 27.332H95.6934ZM96.9883 30.709H89.9678L88.4062 35H84.2422L91.4023 16.7949H95.5537L102.714 35H98.5498L96.9883 30.709ZM113.124 16.4141C114.08 16.4141 114.99 16.541 115.854 16.7949C116.717 17.0404 117.424 17.3408 117.974 17.6963C118.532 18.0518 119.023 18.4072 119.446 18.7627C119.878 19.1182 120.187 19.4186 120.373 19.6641L120.665 20.0449L118.189 22.5205C118.139 22.4528 118.067 22.3597 117.974 22.2412C117.889 22.1143 117.69 21.9027 117.377 21.6064C117.072 21.3102 116.738 21.0521 116.374 20.832C116.01 20.6035 115.532 20.3962 114.939 20.21C114.347 20.0153 113.742 19.918 113.124 19.918C111.423 19.918 110.001 20.4893 108.858 21.6318C107.716 22.7744 107.145 24.1963 107.145 25.8975C107.145 27.5986 107.716 29.0205 108.858 30.1631C110.001 31.3057 111.423 31.877 113.124 31.877C113.784 31.877 114.415 31.7881 115.016 31.6104C115.625 31.4242 116.129 31.2083 116.526 30.9629C116.924 30.709 117.275 30.4551 117.58 30.2012C117.885 29.9473 118.105 29.7272 118.24 29.541L118.443 29.2744L120.792 31.75C120.724 31.8516 120.618 31.987 120.475 32.1562C120.339 32.3171 120.03 32.609 119.548 33.0322C119.074 33.4469 118.562 33.8151 118.012 34.1367C117.47 34.4499 116.755 34.7376 115.866 35C114.986 35.2624 114.072 35.3936 113.124 35.3936C110.348 35.3936 108.004 34.4668 106.091 32.6133C104.187 30.7513 103.234 28.5127 103.234 25.8975C103.234 23.2822 104.187 21.0479 106.091 19.1943C108.004 17.3408 110.348 16.4141 113.124 16.4141Z" fill="#FF6B6B"/>
<path d="M25 25L1.90735e-06 -1.09278e-06C0.86207 1.72414 6.64062 11.3281 6.64062 25C6.64062 35.1562 2.01149 42.8161 -2.78221e-07 50L25 25Z" fill="#ED111D"/>
</svg>
