<svg width="289" height="50" viewBox="0 0 289 50" fill="none" xmlns="http://www.w3.org/2000/svg">
<path d="M52.5449 16.7949L56.8359 25.377L60.4795 16.7949H64.6436L58.2705 30.4551C57.5257 32.0293 56.6497 33.2227 55.6426 34.0352C54.6354 34.8477 53.387 35.2539 51.8975 35.2539C51.5505 35.2539 51.2035 35.2201 50.8564 35.1523C50.5094 35.0846 50.2513 35.0169 50.082 34.9492L49.8154 34.873V31.4961C50.2471 31.6654 50.7676 31.75 51.377 31.75C52.6803 31.75 53.679 31.1449 54.373 29.9346L54.8936 29.0205L48.3936 16.7949H52.5449ZM74.7744 16.4141C75.7308 16.4141 76.6406 16.541 77.5039 16.7949C78.3672 17.0404 79.0739 17.3408 79.624 17.6963C80.1826 18.0518 80.6735 18.4072 81.0967 18.7627C81.5283 19.1182 81.8372 19.4186 82.0234 19.6641L82.3154 20.0449L79.8398 22.5205C79.7891 22.4528 79.7171 22.3597 79.624 22.2412C79.5394 22.1143 79.3405 21.9027 79.0273 21.6064C78.7227 21.3102 78.3883 21.0521 78.0244 20.832C77.6605 20.6035 77.1823 20.3962 76.5898 20.21C75.9974 20.0153 75.3923 19.918 74.7744 19.918C73.0732 19.918 71.6514 20.4893 70.5088 21.6318C69.3662 22.7744 68.7949 24.1963 68.7949 25.8975C68.7949 27.5986 69.3662 29.0205 70.5088 30.1631C71.6514 31.3057 73.0732 31.877 74.7744 31.877C75.4346 31.877 76.0651 31.7881 76.666 31.6104C77.2754 31.4242 77.779 31.2083 78.1768 30.9629C78.5745 30.709 78.9258 30.4551 79.2305 30.2012C79.5352 29.9473 79.7552 29.7272 79.8906 29.541L80.0938 29.2744L82.4424 31.75C82.3747 31.8516 82.2689 31.987 82.125 32.1562C81.9896 32.3171 81.6807 32.609 81.1982 33.0322C80.7243 33.4469 80.2122 33.8151 79.6621 34.1367C79.1204 34.4499 78.4053 34.7376 77.5166 35C76.6364 35.2624 75.7223 35.3936 74.7744 35.3936C71.9984 35.3936 69.654 34.4668 67.7412 32.6133C65.8369 30.7513 64.8848 28.5127 64.8848 25.8975C64.8848 23.2822 65.8369 21.0479 67.7412 19.1943C69.654 17.3408 71.9984 16.4141 74.7744 16.4141ZM100.762 16.7949V35H96.8643V20.3115H91.5322V22.3936C91.5322 24.958 91.3883 27.112 91.1006 28.8555C90.8213 30.5905 90.4023 31.9235 89.8438 32.8545C89.2936 33.7855 88.6758 34.4414 87.9902 34.8223C87.3047 35.2031 86.4922 35.3936 85.5527 35.3936C85.1719 35.3936 84.7868 35.3512 84.3975 35.2666C84.0081 35.1904 83.7204 35.1185 83.5342 35.0508L83.2168 34.9492V31.2295C83.6484 31.3988 84.0801 31.4876 84.5117 31.4961C85.1888 31.4961 85.7347 31.293 86.1494 30.8867C86.5726 30.472 86.9238 29.5791 87.2031 28.208C87.4909 26.8285 87.6348 24.8988 87.6348 22.4189V16.7949H100.762ZM107.643 16.7949L111.934 25.377L115.577 16.7949H119.741L113.368 30.4551C112.623 32.0293 111.747 33.2227 110.74 34.0352C109.733 34.8477 108.485 35.2539 106.995 35.2539C106.648 35.2539 106.301 35.2201 105.954 35.1523C105.607 35.0846 105.349 35.0169 105.18 34.9492L104.913 34.873V31.4961C105.345 31.6654 105.865 31.75 106.475 31.75C107.778 31.75 108.777 31.1449 109.471 29.9346L109.991 29.0205L103.491 16.7949H107.643ZM122.064 35V16.7949H134.417V20.3115H125.975V35H122.064ZM153.27 35H149.372V23.4346L140.409 35H137.02V16.7949H140.93V28.373L149.893 16.7949H153.27V35ZM184.855 35H180.958V23.4346L171.995 35H168.605V16.7949H172.516V28.373L181.479 16.7949H184.855V35ZM210.335 16.7949V35H206.438V20.3115H198.77V35H194.859V16.7949H210.335ZM215.02 16.7949H222.688C224.558 16.7949 226.107 17.3831 227.334 18.5596C228.57 19.7275 229.188 21.179 229.188 22.9141C229.188 24.6406 228.574 26.0921 227.347 27.2686C226.119 28.4365 224.566 29.0205 222.688 29.0205H218.93V35H215.02V16.7949ZM222.561 20.3115H218.93V25.5039H222.561C223.339 25.5039 223.987 25.2542 224.503 24.7549C225.028 24.2555 225.29 23.6419 225.29 22.9141C225.29 22.1862 225.028 21.5726 224.503 21.0732C223.987 20.5654 223.339 20.3115 222.561 20.3115ZM240.486 27.332L238.277 21.3525L236.056 27.332H240.486ZM241.781 30.709H234.761L233.199 35H229.035L236.195 16.7949H240.347L247.507 35H243.343L241.781 30.709ZM257.054 11.8057C257.35 12.1019 257.722 12.25 258.171 12.25C258.619 12.25 258.992 12.1019 259.288 11.8057C259.584 11.5094 259.732 11.137 259.732 10.6885H262.335C262.335 11.8649 261.95 12.834 261.18 13.5957C260.41 14.349 259.407 14.7256 258.171 14.7256C256.944 14.7256 255.945 14.349 255.175 13.5957C254.405 12.834 254.02 11.8649 254.02 10.6885H256.609C256.609 11.137 256.757 11.5094 257.054 11.8057ZM266.359 35H262.462V23.4346L253.499 35H250.109V16.7949H254.02V28.373L262.982 16.7949H266.359V35ZM279.88 16.4141C280.836 16.4141 281.746 16.541 282.609 16.7949C283.473 17.0404 284.179 17.3408 284.729 17.6963C285.288 18.0518 285.779 18.4072 286.202 18.7627C286.634 19.1182 286.943 19.4186 287.129 19.6641L287.421 20.0449L284.945 22.5205C284.895 22.4528 284.823 22.3597 284.729 22.2412C284.645 22.1143 284.446 21.9027 284.133 21.6064C283.828 21.3102 283.494 21.0521 283.13 20.832C282.766 20.6035 282.288 20.3962 281.695 20.21C281.103 20.0153 280.498 19.918 279.88 19.918C278.179 19.918 276.757 20.4893 275.614 21.6318C274.472 22.7744 273.9 24.1963 273.9 25.8975C273.9 27.5986 274.472 29.0205 275.614 30.1631C276.757 31.3057 278.179 31.877 279.88 31.877C280.54 31.877 281.171 31.7881 281.771 31.6104C282.381 31.4242 282.884 31.2083 283.282 30.9629C283.68 30.709 284.031 30.4551 284.336 30.2012C284.641 29.9473 284.861 29.7272 284.996 29.541L285.199 29.2744L287.548 31.75C287.48 31.8516 287.374 31.987 287.23 32.1562C287.095 32.3171 286.786 32.609 286.304 33.0322C285.83 33.4469 285.318 33.8151 284.768 34.1367C284.226 34.4499 283.511 34.7376 282.622 35C281.742 35.2624 280.828 35.3936 279.88 35.3936C277.104 35.3936 274.759 34.4668 272.847 32.6133C270.942 30.7513 269.99 28.5127 269.99 25.8975C269.99 23.2822 270.942 21.0479 272.847 19.1943C274.759 17.3408 277.104 16.4141 279.88 16.4141Z" fill="#FF6B6B"/>
<path d="M25 25L1.90735e-06 -1.09278e-06C0.86207 1.72414 6.64062 11.3281 6.64062 25C6.64062 35.1562 2.01149 42.8161 -2.78221e-07 50L25 25Z" fill="#ED111D"/>
</svg>
