<svg width="111" height="50" viewBox="0 0 111 50" fill="none" xmlns="http://www.w3.org/2000/svg">
<path d="M42.2461 31.4961H46.1436C46.8376 31.4961 47.4215 31.276 47.8955 30.8359C48.3695 30.3874 48.6064 29.8711 48.6064 29.2871C48.6064 28.6947 48.3695 28.1784 47.8955 27.7383C47.4215 27.2897 46.8376 27.0654 46.1436 27.0654H42.2461V31.4961ZM46.2705 35H38.3359V16.7949H50.9551V20.3115H42.2461V23.5615H46.2705C48.0563 23.5615 49.5417 24.1201 50.7266 25.2373C51.9115 26.3545 52.5039 27.7044 52.5039 29.2871C52.5039 30.8613 51.9115 32.207 50.7266 33.3242C49.5417 34.4414 48.0563 35 46.2705 35ZM71.2168 16.7949V35H67.3193V20.3115H61.9873V22.3936C61.9873 24.958 61.8434 27.112 61.5557 28.8555C61.2764 30.5905 60.8574 31.9235 60.2988 32.8545C59.7487 33.7855 59.1309 34.4414 58.4453 34.8223C57.7598 35.2031 56.9473 35.3936 56.0078 35.3936C55.627 35.3936 55.2419 35.3512 54.8525 35.2666C54.4632 35.1904 54.1755 35.1185 53.9893 35.0508L53.6719 34.9492V31.2295C54.1035 31.3988 54.5352 31.4876 54.9668 31.4961C55.6439 31.4961 56.1898 31.293 56.6045 30.8867C57.0277 30.472 57.3789 29.5791 57.6582 28.208C57.946 26.8285 58.0898 24.8988 58.0898 22.4189V16.7949H71.2168ZM80.5859 21.6572C79.4518 22.8083 78.8848 24.2259 78.8848 25.9102C78.8848 27.5859 79.4518 28.9993 80.5859 30.1504C81.7201 31.3014 83.0996 31.877 84.7246 31.877C86.3581 31.877 87.7419 31.3014 88.876 30.1504C90.0101 28.9993 90.5771 27.5859 90.5771 25.9102C90.5771 24.2259 90.0101 22.8083 88.876 21.6572C87.7419 20.4977 86.3581 19.918 84.7246 19.918C83.0996 19.918 81.7201 20.4977 80.5859 21.6572ZM77.7041 32.6133C75.7998 30.7513 74.8477 28.5127 74.8477 25.8975C74.8477 23.2822 75.7998 21.0479 77.7041 19.1943C79.6169 17.3408 81.957 16.4141 84.7246 16.4141C87.5007 16.4141 89.8408 17.3408 91.7451 19.1943C93.6579 21.0479 94.6143 23.2822 94.6143 25.8975C94.6143 28.5127 93.6579 30.7513 91.7451 32.6133C89.8408 34.4668 87.5007 35.3936 84.7246 35.3936C81.957 35.3936 79.6169 34.4668 77.7041 32.6133ZM98.2578 35V16.7949H110.61V20.3115H102.168V35H98.2578Z" fill="#FF6B6B"/>
<path d="M25 25L1.90735e-06 -1.09278e-06C0.86207 1.72414 6.64062 11.3281 6.64062 25C6.64062 35.1562 2.01149 42.8161 -2.78221e-07 50L25 25Z" fill="#ED111D"/>
</svg>
