<svg width="302" height="49" viewBox="0 0 302 49" fill="none" xmlns="http://www.w3.org/2000/svg">
<path d="M9.55176 13.9941H13.3018V35H8.80469V19.707H5.20117V16.8506C5.8457 16.7725 6.43652 16.6211 6.97363 16.3965C7.51074 16.1621 7.92578 15.9131 8.21875 15.6494C8.52148 15.3857 8.77539 15.1318 8.98047 14.8877C9.19531 14.6338 9.34668 14.4189 9.43457 14.2432L9.55176 13.9941ZM55.1641 35H43.0781C43.0781 33.8743 43.2474 32.8545 43.5859 31.9404C43.9245 31.0179 44.3646 30.252 44.9062 29.6426C45.4564 29.0332 46.0573 28.4746 46.709 27.9668C47.3691 27.459 48.0251 26.9977 48.6768 26.583C49.3285 26.1598 49.9251 25.7451 50.4668 25.3389C51.0169 24.9326 51.4613 24.4587 51.7998 23.917C52.1383 23.3669 52.3076 22.7702 52.3076 22.127C52.3076 21.2044 52.0199 20.4766 51.4443 19.9434C50.8773 19.4102 50.0817 19.1436 49.0576 19.1436C48.5583 19.1436 48.0885 19.2367 47.6484 19.4229C47.2168 19.6006 46.8783 19.8164 46.6328 20.0703C46.3958 20.3158 46.1842 20.5654 45.998 20.8193C45.8203 21.0732 45.6976 21.2933 45.6299 21.4795L45.541 21.7461L43.2051 20.7051C43.2389 20.5866 43.2855 20.4342 43.3447 20.248C43.4124 20.0618 43.5902 19.7318 43.8779 19.2578C44.1742 18.7839 44.5169 18.3649 44.9062 18.001C45.2956 17.637 45.8584 17.3027 46.5947 16.998C47.3311 16.6934 48.152 16.541 49.0576 16.541C50.8434 16.541 52.3076 17.0785 53.4502 18.1533C54.5928 19.2282 55.1641 20.5527 55.1641 22.127C55.1641 22.9564 54.9948 23.7266 54.6562 24.4375C54.3177 25.1484 53.8861 25.7451 53.3613 26.2275C52.8451 26.7015 52.2484 27.1924 51.5713 27.7002C50.9027 28.1995 50.251 28.6566 49.6162 29.0713C48.9814 29.486 48.3551 29.9854 47.7373 30.5693C47.1279 31.1449 46.6582 31.7542 46.3281 32.3975H55.1641V35ZM93.0342 25.377C93.1188 25.4108 93.2331 25.4616 93.377 25.5293C93.5293 25.5885 93.7917 25.7409 94.1641 25.9863C94.5365 26.2233 94.8665 26.4984 95.1543 26.8115C95.4421 27.1247 95.7002 27.5605 95.9287 28.1191C96.1657 28.6693 96.2842 29.2744 96.2842 29.9346C96.2842 31.4242 95.6875 32.6852 94.4941 33.7178C93.3092 34.7419 91.7393 35.2539 89.7842 35.2539C88.9548 35.2539 88.1676 35.1566 87.4229 34.9619C86.6781 34.7588 86.0602 34.5218 85.5693 34.251C85.0869 33.9717 84.668 33.6924 84.3125 33.4131C83.957 33.1338 83.6989 32.901 83.5381 32.7148L83.2842 32.3975L85.0996 30.582C85.1335 30.6328 85.1927 30.709 85.2773 30.8105C85.3704 30.9036 85.5651 31.0729 85.8613 31.3184C86.1576 31.5553 86.4665 31.7669 86.7881 31.9531C87.1182 32.1309 87.5498 32.2959 88.083 32.4482C88.6247 32.5921 89.1917 32.6641 89.7842 32.6641C90.9098 32.6641 91.7985 32.3932 92.4502 31.8516C93.1019 31.3014 93.4277 30.6201 93.4277 29.8076C93.4277 28.9867 93.1019 28.3053 92.4502 27.7637C91.7985 27.2135 90.9098 26.9385 89.7842 26.9385H87.9688V24.3359H89.7842C90.6813 24.3359 91.3796 24.1032 91.8789 23.6377C92.3867 23.1722 92.6406 22.5417 92.6406 21.7461C92.6406 20.9421 92.3867 20.3073 91.8789 19.8418C91.3796 19.3763 90.6813 19.1436 89.7842 19.1436C89.0225 19.1436 88.3031 19.3086 87.626 19.6387C86.9489 19.9688 86.4707 20.2861 86.1914 20.5908L85.7598 21.0859L83.9316 19.2705C83.9824 19.2028 84.0586 19.1097 84.1602 18.9912C84.2702 18.8643 84.5072 18.64 84.8711 18.3184C85.235 17.9967 85.6243 17.7217 86.0391 17.4932C86.4538 17.2562 86.9997 17.0404 87.6768 16.8457C88.3538 16.6426 89.0563 16.541 89.7842 16.541C91.57 16.541 92.9707 17.0023 93.9863 17.9248C95.002 18.8389 95.5098 20.0238 95.5098 21.4795C95.5098 21.9788 95.4209 22.4613 95.2432 22.9268C95.0739 23.3838 94.8665 23.7562 94.6211 24.0439C94.3757 24.3317 94.1344 24.5814 93.8975 24.793C93.6689 24.9961 93.4658 25.14 93.2881 25.2246L93.0342 25.377ZM106.974 32.3848C107.312 32.7233 107.481 33.1211 107.481 33.5781C107.481 34.0267 107.312 34.4202 106.974 34.7588C106.635 35.0889 106.237 35.2539 105.78 35.2539C105.332 35.2539 104.938 35.0889 104.6 34.7588C104.261 34.4202 104.092 34.0267 104.092 33.5781C104.092 33.1211 104.261 32.7233 104.6 32.3848C104.938 32.0462 105.332 31.877 105.78 31.877C106.237 31.877 106.635 32.0462 106.974 32.3848ZM118.171 32.3848C118.509 32.7233 118.679 33.1211 118.679 33.5781C118.679 34.0267 118.509 34.4202 118.171 34.7588C117.832 35.0889 117.435 35.2539 116.978 35.2539C116.529 35.2539 116.135 35.0889 115.797 34.7588C115.458 34.4202 115.289 34.0267 115.289 33.5781C115.289 33.1211 115.458 32.7233 115.797 32.3848C116.135 32.0462 116.529 31.877 116.978 31.877C117.435 31.877 117.832 32.0462 118.171 32.3848ZM129.368 32.3848C129.707 32.7233 129.876 33.1211 129.876 33.5781C129.876 34.0267 129.707 34.4202 129.368 34.7588C129.03 35.0889 128.632 35.2539 128.175 35.2539C127.726 35.2539 127.333 35.0889 126.994 34.7588C126.656 34.4202 126.486 34.0267 126.486 33.5781C126.486 33.1211 126.656 32.7233 126.994 32.3848C127.333 32.0462 127.726 31.877 128.175 31.877C128.632 31.877 129.03 32.0462 129.368 32.3848Z" fill="white"/>
<line x1="2.5" y1="46.5" x2="21.5" y2="46.5" stroke="white" stroke-width="5" stroke-linecap="round"/>
<rect x="152" y="4" width="150" height="45" rx="5" fill="white"/>
<path d="M189 31.1982H189.721C189.779 31.1514 189.855 31.0723 189.949 30.9609C190.049 30.8438 190.222 30.583 190.468 30.1787C190.714 29.7686 190.931 29.3203 191.118 28.834C191.312 28.3477 191.487 27.6855 191.646 26.8477C191.804 26.0039 191.883 25.1133 191.883 24.1758V20.3965H200.074V31.1982H201.604V35.6982H199.617V33H190.978V35.6982H189V31.1982ZM193.86 24.1758C193.86 25.1133 193.784 25.998 193.632 26.8301C193.485 27.6562 193.307 28.3242 193.096 28.834C192.885 29.3438 192.674 29.7891 192.463 30.1699C192.252 30.5449 192.07 30.8115 191.918 30.9697L191.698 31.1982H198.088V22.1982H193.86V24.1758ZM210.252 33H208.45V32.1035C208.427 32.127 208.386 32.165 208.327 32.2178C208.274 32.2705 208.163 32.3584 207.993 32.4814C207.829 32.5986 207.65 32.707 207.457 32.8066C207.264 32.9004 207.021 32.9854 206.728 33.0615C206.435 33.1377 206.139 33.1758 205.84 33.1758C204.961 33.1758 204.231 32.9209 203.651 32.4111C203.071 31.9014 202.781 31.3184 202.781 30.6621C202.781 29.9531 203.004 29.3584 203.449 28.8779C203.9 28.3975 204.516 28.0928 205.295 27.9639L208.45 27.4189C208.45 26.9619 208.28 26.5781 207.94 26.2676C207.606 25.957 207.176 25.8018 206.648 25.8018C206.191 25.8018 205.775 25.8984 205.4 26.0918C205.031 26.2793 204.776 26.4697 204.636 26.6631L204.398 26.9707L203.229 25.8018C203.265 25.7549 203.312 25.6963 203.37 25.626C203.435 25.5498 203.572 25.4209 203.783 25.2393C204 25.0518 204.229 24.8848 204.469 24.7383C204.709 24.5918 205.025 24.4629 205.418 24.3516C205.816 24.2344 206.227 24.1758 206.648 24.1758C207.703 24.1758 208.567 24.4893 209.241 25.1162C209.915 25.7373 210.252 26.5049 210.252 27.4189V33ZM206.112 31.5586C206.845 31.5586 207.416 31.3418 207.826 30.9082C208.242 30.4688 208.45 29.8447 208.45 29.0361V28.8604L205.655 29.3086C205.333 29.3672 205.072 29.499 204.873 29.7041C204.674 29.9092 204.574 30.167 204.574 30.4775C204.574 30.7646 204.712 31.0166 204.987 31.2334C205.269 31.4502 205.644 31.5586 206.112 31.5586ZM213.768 24.3604H220.43V33H218.628V25.9775H215.569V26.8828C215.569 28.5293 215.438 29.8301 215.174 30.7852C214.916 31.7344 214.582 32.3701 214.172 32.6924C213.768 33.0146 213.243 33.1758 212.599 33.1758C212.44 33.1758 212.271 33.1611 212.089 33.1318C211.913 33.1025 211.775 33.0703 211.676 33.0352L211.518 33V31.2861C211.758 31.3447 211.966 31.377 212.142 31.3828C212.511 31.3828 212.801 31.2832 213.012 31.084C213.229 30.8848 213.407 30.4453 213.548 29.7656C213.694 29.0801 213.768 28.1191 213.768 26.8828V24.3604ZM230.959 29.3086H224.209C224.303 29.918 224.602 30.4453 225.105 30.8906C225.615 31.3359 226.219 31.5586 226.916 31.5586C227.42 31.5586 227.889 31.4443 228.322 31.2158C228.762 30.9873 229.072 30.7646 229.254 30.5479L229.526 30.2139L230.695 31.3828C230.66 31.4297 230.604 31.4971 230.528 31.585C230.458 31.667 230.303 31.8105 230.062 32.0156C229.822 32.2148 229.567 32.3936 229.298 32.5518C229.028 32.7041 228.677 32.8477 228.243 32.9824C227.815 33.1113 227.373 33.1758 226.916 33.1758C225.691 33.1758 224.634 32.7275 223.743 31.8311C222.858 30.9287 222.416 29.8477 222.416 28.5879C222.416 27.375 222.847 26.3379 223.708 25.4766C224.575 24.6094 225.612 24.1758 226.819 24.1758C228.032 24.1758 229.04 24.5801 229.843 25.3887C230.651 26.1914 231.056 27.1992 231.056 28.4121L230.959 29.3086ZM226.819 25.7139C226.169 25.7139 225.621 25.9072 225.176 26.2939C224.736 26.6748 224.44 27.1699 224.288 27.7793H229.289C229.184 27.1699 228.911 26.6748 228.472 26.2939C228.032 25.9072 227.481 25.7139 226.819 25.7139ZM241.031 29.3086H234.281C234.375 29.918 234.674 30.4453 235.178 30.8906C235.688 31.3359 236.291 31.5586 236.988 31.5586C237.492 31.5586 237.961 31.4443 238.395 31.2158C238.834 30.9873 239.145 30.7646 239.326 30.5479L239.599 30.2139L240.768 31.3828C240.732 31.4297 240.677 31.4971 240.601 31.585C240.53 31.667 240.375 31.8105 240.135 32.0156C239.895 32.2148 239.64 32.3936 239.37 32.5518C239.101 32.7041 238.749 32.8477 238.315 32.9824C237.888 33.1113 237.445 33.1758 236.988 33.1758C235.764 33.1758 234.706 32.7275 233.815 31.8311C232.931 30.9287 232.488 29.8477 232.488 28.5879C232.488 27.375 232.919 26.3379 233.78 25.4766C234.647 24.6094 235.685 24.1758 236.892 24.1758C238.104 24.1758 239.112 24.5801 239.915 25.3887C240.724 26.1914 241.128 27.1992 241.128 28.4121L241.031 29.3086ZM236.892 25.7139C236.241 25.7139 235.693 25.9072 235.248 26.2939C234.809 26.6748 234.513 27.1699 234.36 27.7793H239.361C239.256 27.1699 238.983 26.6748 238.544 26.2939C238.104 25.9072 237.554 25.7139 236.892 25.7139ZM253.811 28.1396V29.0361L246.252 33V31.1982L251.288 28.5879L246.252 25.9775V24.1758L253.811 28.1396ZM262.811 28.1396V29.0361L255.252 33V31.1982L260.288 28.5879L255.252 25.9775V24.1758L262.811 28.1396Z" fill="black"/>
</svg>
