<svg width="282" height="50" viewBox="0 0 282 50" fill="none" xmlns="http://www.w3.org/2000/svg">
<path d="M53.9385 16.7949V35H50.041V27.5859H42.2461V35H38.3359V16.7949H42.2461V24.082H50.041V16.7949H53.9385ZM67.9922 27.332L65.7832 21.3525L63.5615 27.332H67.9922ZM69.2871 30.709H62.2666L60.7051 35H56.541L63.7012 16.7949H67.8525L75.0127 35H70.8486L69.2871 30.709ZM100.505 16.7949V35H77.6152V16.7949H81.5254V31.4961H87.1113V16.7949H91.0088V31.4961H96.5947V16.7949H100.505ZM121.414 35H117.517V23.4346L108.554 35H105.164V16.7949H109.074V28.373L118.037 16.7949H121.414V35ZM146.894 16.7949V35H142.996V20.3115H135.328V35H131.418V16.7949H146.894ZM160.947 27.332L158.738 21.3525L156.517 27.332H160.947ZM162.242 30.709H155.222L153.66 35H149.496L156.656 16.7949H160.808L167.968 35H163.804L162.242 30.709ZM170.57 16.7949H178.238C180.109 16.7949 181.658 17.3831 182.885 18.5596C184.12 19.7275 184.738 21.179 184.738 22.9141C184.738 24.6406 184.125 26.0921 182.897 27.2686C181.67 28.4365 180.117 29.0205 178.238 29.0205H174.48V35H170.57V16.7949ZM178.111 20.3115H174.48V25.5039H178.111C178.89 25.5039 179.537 25.2542 180.054 24.7549C180.578 24.2555 180.841 23.6419 180.841 22.9141C180.841 22.1862 180.578 21.5726 180.054 21.0732C179.537 20.5654 178.89 20.3115 178.111 20.3115ZM186.427 16.7949H200.722V20.3115H195.529V35H191.632V20.3115H186.427V16.7949ZM219.181 16.7949V35H215.283V27.5859H207.488V35H203.578V16.7949H207.488V24.082H215.283V16.7949H219.181ZM227.775 31.4961H237.525V35H223.865V16.7949H237.259V20.3115H227.775V23.9551H235.177V27.459H227.775V31.4961ZM226.506 14.0781C226.117 13.6888 225.922 13.236 225.922 12.7197C225.922 12.195 226.117 11.738 226.506 11.3486C226.895 10.9593 227.348 10.7646 227.864 10.7646C228.389 10.7646 228.846 10.9593 229.235 11.3486C229.625 11.738 229.819 12.195 229.819 12.7197C229.819 13.236 229.625 13.6888 229.235 14.0781C228.846 14.4674 228.389 14.6621 227.864 14.6621C227.348 14.6621 226.895 14.4674 226.506 14.0781ZM232.231 14.0781C231.842 13.6888 231.647 13.236 231.647 12.7197C231.647 12.195 231.842 11.738 232.231 11.3486C232.621 10.9593 233.074 10.7646 233.59 10.7646C234.115 10.7646 234.572 10.9593 234.961 11.3486C235.35 11.738 235.545 12.195 235.545 12.7197C235.545 13.236 235.35 13.6888 234.961 14.0781C234.572 14.4674 234.115 14.6621 233.59 14.6621C233.074 14.6621 232.621 14.4674 232.231 14.0781ZM241.156 16.7949H248.824C250.695 16.7949 252.243 17.3831 253.471 18.5596C254.706 19.7275 255.324 21.179 255.324 22.9141C255.324 24.6406 254.711 26.0921 253.483 27.2686C252.256 28.4365 250.703 29.0205 248.824 29.0205H245.066V35H241.156V16.7949ZM248.697 20.3115H245.066V25.5039H248.697C249.476 25.5039 250.123 25.2542 250.64 24.7549C251.164 24.2555 251.427 23.6419 251.427 22.9141C251.427 22.1862 251.164 21.5726 250.64 21.0732C250.123 20.5654 249.476 20.3115 248.697 20.3115ZM278.722 16.7949V35H274.824V16.7949H278.722ZM266.242 35H258.828V16.7949H262.738V22.7744H266.242C268.113 22.7744 269.661 23.3626 270.889 24.5391C272.124 25.707 272.742 27.1585 272.742 28.8936C272.742 30.6286 272.124 32.0801 270.889 33.248C269.661 34.416 268.113 35 266.242 35ZM262.738 31.4961H266.115C266.894 31.4961 267.541 31.2464 268.058 30.7471C268.582 30.2393 268.845 29.6214 268.845 28.8936C268.845 28.1657 268.582 27.5521 268.058 27.0527C267.541 26.5449 266.894 26.291 266.115 26.291H262.738V31.4961Z" fill="#FF6B6B"/>
<path d="M25 25L1.90735e-06 -1.09278e-06C0.86207 1.72414 6.64062 11.3281 6.64062 25C6.64062 35.1562 2.01149 42.8161 -2.78221e-07 50L25 25Z" fill="#ED111D"/>
</svg>
