<svg width="362" height="594" viewBox="0 0 362 594" fill="none" xmlns="http://www.w3.org/2000/svg">
<g filter="url(#filter0_b)">
<rect width="362" height="594" fill="white" fill-opacity="0.1"/>
<rect x="1" y="1" width="360" height="592" stroke="#575757" stroke-opacity="0.79" stroke-width="2"/>
</g>
<path d="M143.971 291.396V304H141.993V293.198H135.779V304H133.802V291.396H143.971ZM152.795 301.724C153.328 301.167 153.595 300.487 153.595 299.685C153.595 298.876 153.328 298.193 152.795 297.637C152.262 297.08 151.629 296.802 150.896 296.802C150.164 296.802 149.528 297.08 148.989 297.637C148.456 298.193 148.189 298.876 148.189 299.685C148.189 300.487 148.456 301.167 148.989 301.724C149.528 302.28 150.164 302.559 150.896 302.559C151.629 302.559 152.262 302.28 152.795 301.724ZM147.732 302.84C146.842 301.943 146.396 300.892 146.396 299.685C146.396 298.472 146.842 297.417 147.732 296.521C148.629 295.624 149.684 295.176 150.896 295.176C152.109 295.176 153.161 295.624 154.052 296.521C154.948 297.417 155.396 298.472 155.396 299.685C155.396 300.892 154.948 301.943 154.052 302.84C153.161 303.73 152.109 304.176 150.896 304.176C149.684 304.176 148.629 303.73 147.732 302.84ZM156.117 302.383H156.741C156.776 302.348 156.826 302.292 156.891 302.216C156.961 302.134 157.078 301.955 157.242 301.68C157.412 301.404 157.559 301.108 157.682 300.792C157.811 300.47 157.925 300.048 158.024 299.526C158.13 299.005 158.183 298.457 158.183 297.883V295.36H164.484V302.383H165.741V306.162H163.948V304H157.919V306.162H156.117V302.383ZM159.984 296.978V297.883C159.984 298.457 159.935 299.002 159.835 299.518C159.741 300.033 159.621 300.461 159.475 300.801C159.334 301.135 159.19 301.425 159.044 301.671C158.903 301.917 158.786 302.093 158.692 302.198L158.543 302.383H162.683V296.978H159.984ZM172.14 304.176C171.817 304.176 171.504 304.138 171.199 304.062C170.895 303.985 170.634 303.892 170.417 303.78C170.2 303.663 170.007 303.546 169.837 303.429C169.673 303.306 169.553 303.209 169.477 303.139L169.354 303.007V307.779H167.552V295.36H169.354V296.354C169.436 296.271 169.55 296.163 169.696 296.028C169.849 295.894 170.168 295.718 170.654 295.501C171.141 295.284 171.636 295.176 172.14 295.176C173.282 295.176 174.272 295.615 175.11 296.494C175.954 297.367 176.376 298.428 176.376 299.676C176.376 300.924 175.954 301.987 175.11 302.866C174.272 303.739 173.282 304.176 172.14 304.176ZM173.783 297.646C173.256 297.083 172.649 296.802 171.964 296.802C171.278 296.802 170.672 297.083 170.145 297.646C169.617 298.208 169.354 298.888 169.354 299.685C169.354 300.476 169.617 301.152 170.145 301.715C170.672 302.277 171.278 302.559 171.964 302.559C172.649 302.559 173.256 302.277 173.783 301.715C174.311 301.152 174.574 300.476 174.574 299.685C174.574 298.888 174.311 298.208 173.783 297.646ZM184.207 301.724C184.74 301.167 185.007 300.487 185.007 299.685C185.007 298.876 184.74 298.193 184.207 297.637C183.674 297.08 183.041 296.802 182.309 296.802C181.576 296.802 180.94 297.08 180.401 297.637C179.868 298.193 179.602 298.876 179.602 299.685C179.602 300.487 179.868 301.167 180.401 301.724C180.94 302.28 181.576 302.559 182.309 302.559C183.041 302.559 183.674 302.28 184.207 301.724ZM179.145 302.84C178.254 301.943 177.809 300.892 177.809 299.685C177.809 298.472 178.254 297.417 179.145 296.521C180.041 295.624 181.096 295.176 182.309 295.176C183.521 295.176 184.573 295.624 185.464 296.521C186.36 297.417 186.809 298.472 186.809 299.685C186.809 300.892 186.36 301.943 185.464 302.84C184.573 303.73 183.521 304.176 182.309 304.176C181.096 304.176 180.041 303.73 179.145 302.84ZM197.426 299.772C197.426 300.985 196.998 302.022 196.143 302.884C195.293 303.745 194.282 304.176 193.11 304.176C191.757 304.176 190.667 303.692 189.841 302.726C189.021 301.753 188.61 300.347 188.61 298.507C188.61 296.409 189 294.836 189.779 293.787C190.559 292.738 191.669 292.094 193.11 291.854C193.749 291.748 194.32 291.613 194.824 291.449C195.334 291.285 195.686 291.147 195.879 291.036L196.169 290.86L196.978 292.214C196.942 292.261 196.869 292.328 196.758 292.416C196.652 292.504 196.286 292.662 195.659 292.891C195.038 293.119 194.247 293.312 193.286 293.471C192.46 293.605 191.795 293.948 191.291 294.499C190.787 295.05 190.491 295.788 190.403 296.714C190.427 296.679 190.468 296.632 190.526 296.573C190.591 296.509 190.717 296.4 190.904 296.248C191.092 296.09 191.288 295.952 191.493 295.835C191.704 295.712 191.971 295.604 192.293 295.51C192.621 295.41 192.952 295.36 193.286 295.36C194.376 295.36 195.337 295.797 196.169 296.67C197.007 297.537 197.426 298.571 197.426 299.772ZM191.335 297.786C190.837 298.319 190.588 298.981 190.588 299.772C190.588 300.563 190.837 301.226 191.335 301.759C191.833 302.292 192.422 302.559 193.102 302.559C193.787 302.559 194.379 302.292 194.877 301.759C195.375 301.226 195.624 300.563 195.624 299.772C195.624 298.981 195.375 298.319 194.877 297.786C194.379 297.247 193.787 296.978 193.102 296.978C192.422 296.978 191.833 297.247 191.335 297.786ZM201.381 300.396V304H199.579V295.36H201.381V298.779H205.608V295.36H207.41V304H205.608V300.396H201.381ZM217.939 300.309H211.189C211.283 300.918 211.582 301.445 212.086 301.891C212.596 302.336 213.199 302.559 213.896 302.559C214.4 302.559 214.869 302.444 215.303 302.216C215.742 301.987 216.053 301.765 216.234 301.548L216.507 301.214L217.676 302.383C217.641 302.43 217.585 302.497 217.509 302.585C217.438 302.667 217.283 302.811 217.043 303.016C216.803 303.215 216.548 303.394 216.278 303.552C216.009 303.704 215.657 303.848 215.224 303.982C214.796 304.111 214.354 304.176 213.896 304.176C212.672 304.176 211.614 303.728 210.724 302.831C209.839 301.929 209.396 300.848 209.396 299.588C209.396 298.375 209.827 297.338 210.688 296.477C211.556 295.609 212.593 295.176 213.8 295.176C215.013 295.176 216.021 295.58 216.823 296.389C217.632 297.191 218.036 298.199 218.036 299.412L217.939 300.309ZM213.8 296.714C213.149 296.714 212.602 296.907 212.156 297.294C211.717 297.675 211.421 298.17 211.269 298.779H216.27C216.164 298.17 215.892 297.675 215.452 297.294C215.013 296.907 214.462 296.714 213.8 296.714ZM228.012 300.309H221.262C221.355 300.918 221.654 301.445 222.158 301.891C222.668 302.336 223.271 302.559 223.969 302.559C224.473 302.559 224.941 302.444 225.375 302.216C225.814 301.987 226.125 301.765 226.307 301.548L226.579 301.214L227.748 302.383C227.713 302.43 227.657 302.497 227.581 302.585C227.511 302.667 227.355 302.811 227.115 303.016C226.875 303.215 226.62 303.394 226.351 303.552C226.081 303.704 225.729 303.848 225.296 303.982C224.868 304.111 224.426 304.176 223.969 304.176C222.744 304.176 221.687 303.728 220.796 302.831C219.911 301.929 219.469 300.848 219.469 299.588C219.469 298.375 219.899 297.338 220.761 296.477C221.628 295.609 222.665 295.176 223.872 295.176C225.085 295.176 226.093 295.58 226.896 296.389C227.704 297.191 228.108 298.199 228.108 299.412L228.012 300.309ZM223.872 296.714C223.222 296.714 222.674 296.907 222.229 297.294C221.789 297.675 221.493 298.17 221.341 298.779H226.342C226.236 298.17 225.964 297.675 225.524 297.294C225.085 296.907 224.534 296.714 223.872 296.714Z" fill="white"/>
<circle cx="180" cy="297" r="64" stroke="#B1ACAC" stroke-width="2"/>
<defs>
<filter id="filter0_b" x="-33" y="-33" width="428" height="660" filterUnits="userSpaceOnUse" color-interpolation-filters="sRGB">
<feFlood flood-opacity="0" result="BackgroundImageFix"/>
<feGaussianBlur in="BackgroundImage" stdDeviation="16.5"/>
<feComposite in2="SourceAlpha" operator="in" result="effect1_backgroundBlur"/>
<feBlend mode="normal" in="SourceGraphic" in2="effect1_backgroundBlur" result="shape"/>
</filter>
</defs>
</svg>
