<svg width="269" height="50" viewBox="0 0 269 50" fill="none" xmlns="http://www.w3.org/2000/svg">
<path d="M53.9385 16.7949V35H50.041V27.5859H42.2461V35H38.3359V16.7949H42.2461V24.082H50.041V16.7949H53.9385ZM67.9922 27.332L65.7832 21.3525L63.5615 27.332H67.9922ZM69.2871 30.709H62.2666L60.7051 35H56.541L63.7012 16.7949H67.8525L75.0127 35H70.8486L69.2871 30.709ZM100.505 16.7949V35H77.6152V16.7949H81.5254V31.4961H87.1113V16.7949H91.0088V31.4961H96.5947V16.7949H100.505ZM114.533 27.332L112.324 21.3525L110.103 27.332H114.533ZM115.828 30.709H108.808L107.246 35H103.082L110.242 16.7949H114.394L121.554 35H117.39L115.828 30.709ZM133.398 16.7949V24.7295L140.546 16.7949H145.091L138.337 24.3359L145.611 35H141.066L135.734 27.2051L133.398 29.7949V35H129.488V16.7949H133.398ZM151.604 21.6572C150.469 22.8083 149.902 24.2259 149.902 25.9102C149.902 27.5859 150.469 28.9993 151.604 30.1504C152.738 31.3014 154.117 31.877 155.742 31.877C157.376 31.877 158.759 31.3014 159.894 30.1504C161.028 28.9993 161.595 27.5859 161.595 25.9102C161.595 24.2259 161.028 22.8083 159.894 21.6572C158.759 20.4977 157.376 19.918 155.742 19.918C154.117 19.918 152.738 20.4977 151.604 21.6572ZM148.722 32.6133C146.817 30.7513 145.865 28.5127 145.865 25.8975C145.865 23.2822 146.817 21.0479 148.722 19.1943C150.634 17.3408 152.975 16.4141 155.742 16.4141C158.518 16.4141 160.858 17.3408 162.763 19.1943C164.675 21.0479 165.632 23.2822 165.632 25.8975C165.632 28.5127 164.675 30.7513 162.763 32.6133C160.858 34.4668 158.518 35.3936 155.742 35.3936C152.975 35.3936 150.634 34.4668 148.722 32.6133ZM179.025 24.7295L185.322 16.7949H188.775V35H184.878V22.8633L179.025 30.3154L173.186 22.9141V35H169.275V16.7949H172.792L179.025 24.7295ZM202.816 27.332L200.607 21.3525L198.386 27.332H202.816ZM204.111 30.709H197.091L195.529 35H191.365L198.525 16.7949H202.677L209.837 35H205.673L204.111 30.709ZM228.042 16.7949V35H224.145V27.5859H216.35V35H212.439V16.7949H216.35V24.082H224.145V16.7949H228.042ZM230.391 31.4961H231.432C231.499 31.4284 231.597 31.3226 231.724 31.1787C231.859 31.0264 232.092 30.6878 232.422 30.1631C232.752 29.6299 233.04 29.0459 233.285 28.4111C233.539 27.7764 233.768 26.9173 233.971 25.834C234.182 24.7507 234.288 23.6038 234.288 22.3936V16.7949H246.895V31.4961H249.116V38.7705H245.206V35H234.288V38.7705H230.391V31.4961ZM238.186 22.3936C238.186 23.6038 238.084 24.7464 237.881 25.8213C237.686 26.8962 237.449 27.7637 237.17 28.4238C236.899 29.084 236.624 29.6553 236.345 30.1377C236.065 30.6201 235.833 30.9671 235.646 31.1787L235.329 31.4961H242.997V20.3115H238.186V22.3936ZM261.469 27.332L259.26 21.3525L257.038 27.332H261.469ZM262.764 30.709H255.743L254.182 35H250.018L257.178 16.7949H261.329L268.489 35H264.325L262.764 30.709Z" fill="#FF6B6B"/>
<path d="M25 25L1.90735e-06 -1.09278e-06C0.86207 1.72414 6.64062 11.3281 6.64062 25C6.64062 35.1562 2.01149 42.8161 -2.78221e-07 50L25 25Z" fill="#ED111D"/>
</svg>
