<svg width="154" height="40" viewBox="0 0 154 40" fill="none" xmlns="http://www.w3.org/2000/svg">
<circle cx="134" cy="20" r="20" fill="white"/>
<circle cx="134" cy="20" r="19" stroke="#ED111D" stroke-opacity="0.7" stroke-width="2"/>
<path d="M13.7988 10.9961L13.7988 25L10.8008 25L10.8008 19.2969H4.80469L4.80469 25H1.79687L1.79687 10.9961H4.80469L4.80469 16.6016H10.8008L10.8008 10.9961H13.7988ZM22.207 25V24.0039C22.1289 24.0951 22.0182 24.209 21.875 24.3457C21.7383 24.4759 21.4355 24.6517 20.9668 24.873C20.498 25.0879 20.0098 25.1953 19.502 25.1953C18.5254 25.1953 17.7311 24.9251 17.1191 24.3848C16.5072 23.8379 16.2012 23.1771 16.2012 22.4023C16.2012 21.6016 16.4583 20.9342 16.9727 20.4004C17.487 19.8665 18.1966 19.5182 19.1016 19.3555L22.207 18.7988C22.207 18.3887 22.0573 18.0534 21.7578 17.793C21.4583 17.5326 21.0417 17.4023 20.5078 17.4023C20.0651 17.4023 19.6615 17.487 19.2969 17.6563C18.9323 17.819 18.6751 17.9883 18.5254 18.1641L18.3008 18.3984L16.8066 16.9043C16.8457 16.8522 16.8978 16.7839 16.9629 16.6992C17.0345 16.6081 17.1875 16.4551 17.4219 16.2402C17.6628 16.0254 17.9232 15.8366 18.2031 15.6738C18.4831 15.5046 18.8509 15.3516 19.3066 15.2148C19.7624 15.0716 20.2279 15 20.7031 15C21.9401 15 22.9492 15.3711 23.7305 16.1133C24.5117 16.849 24.9023 17.7767 24.9023 18.8965L24.9023 25H22.207ZM20.2051 22.998C20.8171 22.998 21.3021 22.806 21.6602 22.4219C22.0247 22.0313 22.207 21.4909 22.207 20.8008V20.498L20.0098 20.8984C19.2741 21.0156 18.9062 21.3835 18.9062 22.002C18.9062 22.666 19.3392 22.998 20.2051 22.998ZM27.5098 25L27.5098 15.1953H30.2051L30.2051 22.5977H32.9102V15.1953H35.6055V22.5977H38.3105V15.1953H41.0059V25L27.5098 25ZM50.4492 15.1953L52.8027 15.1953V25H50.1074V19.502L45.8398 25H43.5059V15.1953H46.2012V20.7031L50.4492 15.1953ZM62.1973 17.5977V25H59.502V15.1953H68.7012V25H65.9961V17.5977H62.1973ZM76.8945 25.1953C76.3346 25.1953 75.8105 25.0814 75.3223 24.8535C74.8405 24.6191 74.4987 24.388 74.2969 24.1602L73.9941 23.7988V29.1992H71.2988V15.1953H73.9941V16.3965C74.0202 16.3574 74.0592 16.3086 74.1113 16.25C74.1699 16.1914 74.2871 16.084 74.4629 15.9277C74.6452 15.765 74.8405 15.6217 75.0488 15.498C75.2572 15.3678 75.5273 15.2539 75.8594 15.1563C76.1914 15.0521 76.5365 15 76.8945 15C78.1641 15 79.2643 15.4948 80.1953 16.4844C81.1328 17.4674 81.6016 18.6719 81.6016 20.0977C81.6016 21.5234 81.1328 22.7311 80.1953 23.7207C79.2643 24.7038 78.1641 25.1953 76.8945 25.1953ZM78.0957 18.1641C77.6335 17.6563 77.0671 17.4023 76.3965 17.4023C75.7324 17.4023 75.166 17.6563 74.6973 18.1641C74.2285 18.6654 73.9941 19.3099 73.9941 20.0977C73.9941 20.8854 74.2285 21.5332 74.6973 22.041C75.166 22.5488 75.7324 22.8027 76.3965 22.8027C77.0671 22.8027 77.6335 22.5488 78.0957 22.041C78.5645 21.5332 78.7988 20.8854 78.7988 20.0977C78.7988 19.3099 78.5645 18.6654 78.0957 18.1641ZM86.5137 18.252C86.0384 18.7533 85.8008 19.3717 85.8008 20.1074C85.8008 20.8366 86.0384 21.4518 86.5137 21.9531C86.9889 22.4479 87.5521 22.6953 88.2031 22.6953C88.8542 22.6953 89.4173 22.4479 89.8926 21.9531C90.3678 21.4518 90.6055 20.8366 90.6055 20.1074C90.6055 19.3717 90.3678 18.7533 89.8926 18.252C89.4173 17.7507 88.8542 17.5 88.2031 17.5C87.5521 17.5 86.9889 17.7507 86.5137 18.252ZM91.8457 16.5332C92.8809 17.5488 93.3984 18.737 93.3984 20.0977C93.3984 21.4583 92.8809 22.6497 91.8457 23.6719C90.8171 24.6875 89.6029 25.1953 88.2031 25.1953C86.8034 25.1953 85.5859 24.6875 84.5508 23.6719C83.5156 22.6497 82.998 21.4583 82.998 20.0977C82.998 18.737 83.5156 17.5488 84.5508 16.5332C85.5859 15.5111 86.8034 15 88.2031 15C89.6029 15 90.8171 15.5111 91.8457 16.5332ZM104.697 20.9961H97.5977C97.7018 21.5299 97.985 21.9824 98.4473 22.3535C98.9095 22.7181 99.4922 22.9004 100.195 22.9004C100.703 22.9004 101.172 22.8027 101.602 22.6074C102.038 22.4056 102.344 22.2038 102.52 22.002L102.803 21.6992L104.199 23.4961L104.023 23.6719C103.939 23.7565 103.763 23.8965 103.496 24.0918C103.229 24.2871 102.946 24.4629 102.646 24.6191C102.347 24.7689 101.956 24.9023 101.475 25.0195C100.999 25.1367 100.508 25.1953 100 25.1953C98.5612 25.1953 97.334 24.6973 96.3184 23.7012C95.3027 22.6986 94.7949 21.4974 94.7949 20.0977C94.7949 18.6979 95.2962 17.5 96.2988 16.5039C97.3014 15.5013 98.5026 15 99.9023 15C101.302 15 102.467 15.4688 103.398 16.4063C104.329 17.3372 104.795 18.5026 104.795 19.9023L104.697 20.9961ZM101.348 17.8125C100.957 17.474 100.475 17.3047 99.9023 17.3047C99.3294 17.3047 98.8411 17.4707 98.4375 17.8027C98.0404 18.1348 97.7604 18.5677 97.5977 19.1016H102.1C101.995 18.5807 101.745 18.151 101.348 17.8125ZM116.104 15.1953L112.402 19.4043L116.309 25H113.301L110.703 21.2012L109.502 22.5977V25H106.807V15.1953H109.502V19.1992L113.008 15.1953H116.104ZM116.602 17.8027V15.1953L125.508 15.1953V17.8027H122.402V25L119.707 25V17.8027H116.602ZM139.199 15.1953V25H136.494V15.1953H139.199ZM129.795 22.8027H131.396C131.742 22.8027 132.028 22.6888 132.256 22.4609C132.484 22.2331 132.598 21.9466 132.598 21.6016C132.598 21.2565 132.484 20.9701 132.256 20.7422C132.028 20.5143 131.742 20.4004 131.396 20.4004H129.795V22.8027ZM134.287 19.1406C134.964 19.7656 135.303 20.5859 135.303 21.6016C135.303 22.6107 134.964 23.431 134.287 24.0625C133.617 24.6875 132.686 25 131.494 25H127.1V15.1953H129.795V18.2031H131.494C132.679 18.2031 133.61 18.5156 134.287 19.1406Z" fill="black" fill-opacity="0.6"/>
</svg>
