<svg width="35" height="34" viewBox="0 0 35 34" fill="none" xmlns="http://www.w3.org/2000/svg">
<path d="M17.5 33.4339C27.165 33.4339 35 26.1331 35 17.1271C35 8.12112 27.165 0.820312 17.5 0.820312C7.83502 0.820312 0 8.12112 0 17.1271C0 26.1331 7.83502 33.4339 17.5 33.4339Z" fill="#ED111D" fill-opacity="0.6"/>
<path d="M28.2168 12.5466C27.4669 12.8564 26.6602 13.066 25.8142 13.1596C26.678 12.6774 27.3409 11.9143 27.6537 11.0036C26.8455 11.4504 25.9499 11.7745 24.9975 11.9492C24.2344 11.192 23.1473 10.7188 21.9434 10.7188C19.6337 10.7188 17.7604 12.4643 17.7604 14.6165C17.7604 14.922 17.7976 15.2194 17.8693 15.5049C14.3929 15.3424 11.3105 13.7907 9.2472 11.4318C8.88721 12.0074 8.6807 12.6774 8.6807 13.3916C8.6807 14.7436 9.41971 15.9371 10.5415 16.6359C9.85614 16.6159 9.21071 16.4406 8.647 16.1479C8.64669 16.1644 8.64669 16.181 8.64669 16.1973C8.64669 18.0859 10.0892 19.6611 12.0024 20.0189C11.6517 20.1084 11.2815 20.1558 10.9006 20.1558C10.6304 20.1558 10.3687 20.1317 10.1135 20.0863C10.6457 21.6345 12.1902 22.7615 14.021 22.7932C12.5892 23.8388 10.7858 24.4617 8.82544 24.4617C8.48853 24.4617 8.15474 24.4434 7.82812 24.4071C9.67833 25.5134 11.8776 26.1585 14.2397 26.1585C21.9338 26.1585 26.1414 20.2192 26.1414 15.068C26.1414 14.8991 26.1373 14.7308 26.1292 14.5639C26.9472 14.0145 27.6562 13.3282 28.2168 12.5466Z" fill="#9F9F9F"/>
</svg>
