<svg width="74" height="16" viewBox="0 0 74 16" fill="none" xmlns="http://www.w3.org/2000/svg">
<path d="M0 11.1982H0.720703C0.779297 11.1514 0.855469 11.0723 0.949219 10.9609C1.04883 10.8438 1.22168 10.583 1.46777 10.1787C1.71387 9.76855 1.93066 9.32031 2.11816 8.83398C2.31152 8.34766 2.4873 7.68555 2.64551 6.84766C2.80371 6.00391 2.88281 5.11328 2.88281 4.17578V0.396484H11.0742V11.1982H12.6035V15.6982H10.6172V13H1.97754V15.6982H0V11.1982ZM4.86035 4.17578C4.86035 5.11328 4.78418 5.99805 4.63184 6.83008C4.48535 7.65625 4.30664 8.32422 4.0957 8.83398C3.88477 9.34375 3.67383 9.78906 3.46289 10.1699C3.25195 10.5449 3.07031 10.8115 2.91797 10.9697L2.69824 11.1982H9.08789V2.19824H4.86035V4.17578ZM21.252 13H19.4502V12.1035C19.4268 12.127 19.3857 12.165 19.3271 12.2178C19.2744 12.2705 19.1631 12.3584 18.9932 12.4814C18.8291 12.5986 18.6504 12.707 18.457 12.8066C18.2637 12.9004 18.0205 12.9854 17.7275 13.0615C17.4346 13.1377 17.1387 13.1758 16.8398 13.1758C15.9609 13.1758 15.2314 12.9209 14.6514 12.4111C14.0713 11.9014 13.7812 11.3184 13.7812 10.6621C13.7812 9.95312 14.0039 9.3584 14.4492 8.87793C14.9004 8.39746 15.5156 8.09277 16.2949 7.96387L19.4502 7.41895C19.4502 6.96191 19.2803 6.57812 18.9404 6.26758C18.6064 5.95703 18.1758 5.80176 17.6484 5.80176C17.1914 5.80176 16.7754 5.89844 16.4004 6.0918C16.0312 6.2793 15.7764 6.46973 15.6357 6.66309L15.3984 6.9707L14.2295 5.80176C14.2646 5.75488 14.3115 5.69629 14.3701 5.62598C14.4346 5.5498 14.5723 5.4209 14.7832 5.23926C15 5.05176 15.2285 4.88477 15.4688 4.73828C15.709 4.5918 16.0254 4.46289 16.418 4.35156C16.8164 4.23438 17.2266 4.17578 17.6484 4.17578C18.7031 4.17578 19.5674 4.48926 20.2412 5.11621C20.915 5.7373 21.252 6.50488 21.252 7.41895V13ZM17.1123 11.5586C17.8447 11.5586 18.416 11.3418 18.8262 10.9082C19.2422 10.4688 19.4502 9.84473 19.4502 9.03613V8.86035L16.6553 9.30859C16.333 9.36719 16.0723 9.49902 15.873 9.7041C15.6738 9.90918 15.5742 10.167 15.5742 10.4775C15.5742 10.7646 15.7119 11.0166 15.9873 11.2334C16.2686 11.4502 16.6436 11.5586 17.1123 11.5586ZM24.7676 4.36035H31.4297V13H29.6279V5.97754H26.5693V6.88281C26.5693 8.5293 26.4375 9.83008 26.1738 10.7852C25.916 11.7344 25.582 12.3701 25.1719 12.6924C24.7676 13.0146 24.2432 13.1758 23.5986 13.1758C23.4404 13.1758 23.2705 13.1611 23.0889 13.1318C22.9131 13.1025 22.7754 13.0703 22.6758 13.0352L22.5176 13V11.2861C22.7578 11.3447 22.9658 11.377 23.1416 11.3828C23.5107 11.3828 23.8008 11.2832 24.0117 11.084C24.2285 10.8848 24.4072 10.4453 24.5479 9.76562C24.6943 9.08008 24.7676 8.11914 24.7676 6.88281V4.36035ZM41.959 9.30859H35.209C35.3027 9.91797 35.6016 10.4453 36.1055 10.8906C36.6152 11.3359 37.2188 11.5586 37.916 11.5586C38.4199 11.5586 38.8887 11.4443 39.3223 11.2158C39.7617 10.9873 40.0723 10.7646 40.2539 10.5479L40.5264 10.2139L41.6953 11.3828C41.6602 11.4297 41.6045 11.4971 41.5283 11.585C41.458 11.667 41.3027 11.8105 41.0625 12.0156C40.8223 12.2148 40.5674 12.3936 40.2979 12.5518C40.0283 12.7041 39.6768 12.8477 39.2432 12.9824C38.8154 13.1113 38.373 13.1758 37.916 13.1758C36.6914 13.1758 35.6338 12.7275 34.7432 11.8311C33.8584 10.9287 33.416 9.84766 33.416 8.58789C33.416 7.375 33.8467 6.33789 34.708 5.47656C35.5752 4.60938 36.6123 4.17578 37.8193 4.17578C39.0322 4.17578 40.04 4.58008 40.8428 5.38867C41.6514 6.19141 42.0557 7.19922 42.0557 8.41211L41.959 9.30859ZM37.8193 5.71387C37.1689 5.71387 36.6211 5.90723 36.1758 6.29395C35.7363 6.6748 35.4404 7.16992 35.2881 7.7793H40.2891C40.1836 7.16992 39.9111 6.6748 39.4717 6.29395C39.0322 5.90723 38.4814 5.71387 37.8193 5.71387ZM52.0312 9.30859H45.2812C45.375 9.91797 45.6738 10.4453 46.1777 10.8906C46.6875 11.3359 47.291 11.5586 47.9883 11.5586C48.4922 11.5586 48.9609 11.4443 49.3945 11.2158C49.834 10.9873 50.1445 10.7646 50.3262 10.5479L50.5986 10.2139L51.7676 11.3828C51.7324 11.4297 51.6768 11.4971 51.6006 11.585C51.5303 11.667 51.375 11.8105 51.1348 12.0156C50.8945 12.2148 50.6396 12.3936 50.3701 12.5518C50.1006 12.7041 49.749 12.8477 49.3154 12.9824C48.8877 13.1113 48.4453 13.1758 47.9883 13.1758C46.7637 13.1758 45.7061 12.7275 44.8154 11.8311C43.9307 10.9287 43.4883 9.84766 43.4883 8.58789C43.4883 7.375 43.9189 6.33789 44.7803 5.47656C45.6475 4.60938 46.6846 4.17578 47.8916 4.17578C49.1045 4.17578 50.1123 4.58008 50.915 5.38867C51.7236 6.19141 52.1279 7.19922 52.1279 8.41211L52.0312 9.30859ZM47.8916 5.71387C47.2412 5.71387 46.6934 5.90723 46.248 6.29395C45.8086 6.6748 45.5127 7.16992 45.3604 7.7793H50.3613C50.2559 7.16992 49.9834 6.6748 49.5439 6.29395C49.1045 5.90723 48.5537 5.71387 47.8916 5.71387ZM64.8105 8.13965V9.03613L57.252 13V11.1982L62.2881 8.58789L57.252 5.97754V4.17578L64.8105 8.13965ZM73.8105 8.13965V9.03613L66.252 13V11.1982L71.2881 8.58789L66.252 5.97754V4.17578L73.8105 8.13965Z" fill="black"/>
</svg>
