<svg width="188" height="23" viewBox="0 0 188 23" fill="none" xmlns="http://www.w3.org/2000/svg">
<path d="M3.20508 0.794922V6.25391C3.20508 7.55729 3.53939 8.55599 4.20801 9.25C4.88509 9.94401 5.84993 10.291 7.10254 10.291C7.86426 10.291 8.59212 10.1471 9.28613 9.85938C9.98014 9.57161 10.4837 9.29232 10.7969 9.02148L11.2539 8.60254V0.794922H14.123V19H11.2539V11.5859C11.1185 11.6875 10.9238 11.8102 10.6699 11.9541C10.4245 12.0895 9.89128 12.2799 9.07031 12.5254C8.25781 12.7708 7.42839 12.8936 6.58203 12.8936C4.62695 12.8936 3.09505 12.3223 1.98633 11.1797C0.886068 10.0286 0.335938 8.38672 0.335938 6.25391V0.794922H3.20508ZM27.5039 6.52051H29.8398V19H27.2373V10.8115L20.7373 19H18.4014V6.52051H21.0039V14.709L27.5039 6.52051ZM32.1885 8.85645V6.52051H43.3604V8.85645H39.0693V19H36.4795V8.85645H32.1885ZM55.7129 19H53.1104V17.7051C53.0765 17.7389 53.0173 17.7939 52.9326 17.8701C52.8564 17.9463 52.6956 18.0732 52.4502 18.251C52.2132 18.4202 51.9551 18.5768 51.6758 18.7207C51.3965 18.8561 51.0452 18.9788 50.6221 19.0889C50.1989 19.1989 49.7715 19.2539 49.3398 19.2539C48.0703 19.2539 47.0166 18.8857 46.1787 18.1494C45.3408 17.4131 44.9219 16.571 44.9219 15.623C44.9219 14.599 45.2435 13.7399 45.8867 13.0459C46.5384 12.3519 47.4271 11.9118 48.5527 11.7256L53.1104 10.9385C53.1104 10.2783 52.8649 9.72396 52.374 9.27539C51.8916 8.82682 51.2695 8.60254 50.5078 8.60254C49.8477 8.60254 49.2467 8.74219 48.7051 9.02148C48.1719 9.29232 47.8037 9.56738 47.6006 9.84668L47.2578 10.291L45.5693 8.60254C45.6201 8.53483 45.6878 8.4502 45.7725 8.34863C45.8656 8.23861 46.0645 8.05241 46.3691 7.79004C46.6823 7.51921 47.0124 7.27799 47.3594 7.06641C47.7064 6.85482 48.1634 6.66862 48.7305 6.50781C49.306 6.33854 49.8984 6.25391 50.5078 6.25391C52.0312 6.25391 53.2796 6.70671 54.2529 7.6123C55.2262 8.50944 55.7129 9.61816 55.7129 10.9385V19ZM49.7334 16.918C50.7913 16.918 51.6165 16.6048 52.209 15.9785C52.8099 15.3438 53.1104 14.4424 53.1104 13.2744V13.0205L49.0732 13.668C48.6077 13.7526 48.2311 13.943 47.9434 14.2393C47.6556 14.5355 47.5117 14.9079 47.5117 15.3564C47.5117 15.7712 47.7106 16.1351 48.1084 16.4482C48.5146 16.7614 49.0563 16.918 49.7334 16.918ZM58.0615 8.85645V6.52051H69.2334V8.85645H64.9424V19H62.3525V8.85645H58.0615ZM74.1719 16.791H77.0283C77.6208 16.791 78.1159 16.5921 78.5137 16.1943C78.9115 15.7965 79.1104 15.3014 79.1104 14.709C79.1104 14.1165 78.9115 13.6214 78.5137 13.2236C78.1159 12.8258 77.6208 12.627 77.0283 12.627H74.1719V16.791ZM80.418 11.6367C81.2812 12.4408 81.7129 13.4691 81.7129 14.7217C81.7129 15.9658 81.2812 16.9899 80.418 17.7939C79.5632 18.598 78.4333 19 77.0283 19H71.5693V6.52051H74.1719V10.418H77.0283C78.4333 10.418 79.5632 10.8242 80.418 11.6367ZM87.959 16.6641H88.8604C88.9111 16.6133 88.9831 16.5329 89.0762 16.4229C89.1777 16.3044 89.347 16.0462 89.584 15.6484C89.8294 15.2507 90.041 14.8232 90.2188 14.3662C90.4049 13.9007 90.57 13.2913 90.7139 12.5381C90.8662 11.7848 90.9424 10.9935 90.9424 10.1641V6.52051H100.045V16.6641H101.86V22.123H99.2705V19H90.5615V22.123H87.959V16.6641ZM93.5449 8.85645V10.1641C93.5449 10.9935 93.473 11.7806 93.3291 12.5254C93.1937 13.2702 93.0202 13.888 92.8086 14.3789C92.6055 14.8613 92.3981 15.2803 92.1865 15.6357C91.9834 15.9912 91.8141 16.2451 91.6787 16.3975L91.4629 16.6641H97.4424V8.85645H93.5449ZM114.492 19H111.89V17.7051C111.856 17.7389 111.797 17.7939 111.712 17.8701C111.636 17.9463 111.475 18.0732 111.229 18.251C110.993 18.4202 110.734 18.5768 110.455 18.7207C110.176 18.8561 109.825 18.9788 109.401 19.0889C108.978 19.1989 108.551 19.2539 108.119 19.2539C106.85 19.2539 105.796 18.8857 104.958 18.1494C104.12 17.4131 103.701 16.571 103.701 15.623C103.701 14.599 104.023 13.7399 104.666 13.0459C105.318 12.3519 106.206 11.9118 107.332 11.7256L111.89 10.9385C111.89 10.2783 111.644 9.72396 111.153 9.27539C110.671 8.82682 110.049 8.60254 109.287 8.60254C108.627 8.60254 108.026 8.74219 107.484 9.02148C106.951 9.29232 106.583 9.56738 106.38 9.84668L106.037 10.291L104.349 8.60254C104.399 8.53483 104.467 8.4502 104.552 8.34863C104.645 8.23861 104.844 8.05241 105.148 7.79004C105.462 7.51921 105.792 7.27799 106.139 7.06641C106.486 6.85482 106.943 6.66862 107.51 6.50781C108.085 6.33854 108.678 6.25391 109.287 6.25391C110.811 6.25391 112.059 6.70671 113.032 7.6123C114.006 8.50944 114.492 9.61816 114.492 10.9385V19ZM108.513 16.918C109.571 16.918 110.396 16.6048 110.988 15.9785C111.589 15.3438 111.89 14.4424 111.89 13.2744V13.0205L107.853 13.668C107.387 13.7526 107.01 13.943 106.723 14.2393C106.435 14.5355 106.291 14.9079 106.291 15.3564C106.291 15.7712 106.49 16.1351 106.888 16.4482C107.294 16.7614 107.836 16.918 108.513 16.918ZM119.57 6.52051H129.193V19H126.591V8.85645H122.173V10.1641C122.173 12.5423 121.982 14.4212 121.602 15.8008C121.229 17.1719 120.747 18.0902 120.154 18.5557C119.57 19.0212 118.813 19.2539 117.882 19.2539C117.653 19.2539 117.408 19.2327 117.146 19.1904C116.892 19.1481 116.693 19.1016 116.549 19.0508L116.32 19V16.5244C116.667 16.609 116.968 16.6556 117.222 16.6641C117.755 16.6641 118.174 16.5202 118.479 16.2324C118.792 15.9447 119.05 15.3099 119.253 14.3281C119.465 13.3379 119.57 11.9499 119.57 10.1641V6.52051ZM144.402 13.668H134.652C134.788 14.5482 135.219 15.3099 135.947 15.9531C136.684 16.5964 137.555 16.918 138.562 16.918C139.29 16.918 139.967 16.7529 140.594 16.4229C141.229 16.0928 141.677 15.7712 141.939 15.458L142.333 14.9756L144.021 16.6641C143.971 16.7318 143.89 16.8291 143.78 16.9561C143.679 17.0745 143.454 17.2819 143.107 17.5781C142.76 17.8659 142.392 18.124 142.003 18.3525C141.614 18.5726 141.106 18.7799 140.479 18.9746C139.862 19.1608 139.223 19.2539 138.562 19.2539C136.794 19.2539 135.266 18.6064 133.979 17.3115C132.701 16.0081 132.062 14.4466 132.062 12.627C132.062 10.875 132.685 9.37695 133.929 8.13281C135.181 6.88021 136.679 6.25391 138.423 6.25391C140.175 6.25391 141.631 6.83789 142.79 8.00586C143.958 9.16536 144.542 10.6211 144.542 12.373L144.402 13.668ZM138.423 8.47559C137.483 8.47559 136.692 8.75488 136.049 9.31348C135.414 9.86361 134.987 10.5788 134.767 11.459H141.99C141.838 10.5788 141.444 9.86361 140.81 9.31348C140.175 8.75488 139.379 8.47559 138.423 8.47559ZM158.951 13.668H149.201C149.337 14.5482 149.768 15.3099 150.496 15.9531C151.232 16.5964 152.104 16.918 153.111 16.918C153.839 16.918 154.516 16.7529 155.143 16.4229C155.777 16.0928 156.226 15.7712 156.488 15.458L156.882 14.9756L158.57 16.6641C158.52 16.7318 158.439 16.8291 158.329 16.9561C158.228 17.0745 158.003 17.2819 157.656 17.5781C157.309 17.8659 156.941 18.124 156.552 18.3525C156.162 18.5726 155.655 18.7799 155.028 18.9746C154.41 19.1608 153.771 19.2539 153.111 19.2539C151.342 19.2539 149.815 18.6064 148.528 17.3115C147.25 16.0081 146.611 14.4466 146.611 12.627C146.611 10.875 147.233 9.37695 148.478 8.13281C149.73 6.88021 151.228 6.25391 152.972 6.25391C154.724 6.25391 156.179 6.83789 157.339 8.00586C158.507 9.16536 159.091 10.6211 159.091 12.373L158.951 13.668ZM152.972 8.47559C152.032 8.47559 151.241 8.75488 150.598 9.31348C149.963 9.86361 149.535 10.5788 149.315 11.459H156.539C156.387 10.5788 155.993 9.86361 155.358 9.31348C154.724 8.75488 153.928 8.47559 152.972 8.47559ZM183.105 13.15C183.643 12.0407 184.145 11.2087 184.613 10.654H169.455V9.562H184.613C184.145 9.00733 183.643 8.17533 183.105 7.066H184.015C185.107 8.33133 186.251 9.26733 187.447 9.874V10.342C186.251 10.9313 185.107 11.8673 184.015 13.15H183.105Z" fill="white"/>
</svg>
